PathFileType	4	(X/Y/Z)	/Users/itak/Documents/Research/Walk-IL/dataset/trc/00203_00008.trc
DataRate	CameraRate	NumFrames	NumMarkers	Units	OrigDataRate	OrigDataStartFrame	OrigNumFrames
100.000000	100.000000	4	55	mm	100.000000	64	512
Frame#	Time	RPSI			LPSI			L3			STRN			T10			C7			CLAV			RBAK			LBAK			LSHO			LUPA			LAEL			LAOL			LWTS			LWPS			LFRA			LIFD			LHPS			LHTS			RSHO			RUPA			RAEL			RAOL			RWTS			RWPS			RFRA			RIFD			RHTS			RHPS			RBHD			LFHD			RFHD			LBHD			LHIP			RHIP			RASI			LASI			LKNE			LTHI			LANK			LTIP			LTOE			LMT1			LMT5			LHEE			RKNE			RANK			RTIP			RTOE			RMT1			RMT5			RHEE			RTHI			*53			*54			
		X1	Y1	Z1	X2	Y2	Z2	X3	Y3	Z3	X4	Y4	Z4	X5	Y5	Z5	X6	Y6	Z6	X7	Y7	Z7	X8	Y8	Z8	X9	Y9	Z9	X10	Y10	Z10	X11	Y11	Z11	X12	Y12	Z12	X13	Y13	Z13	X14	Y14	Z14	X15	Y15	Z15	X16	Y16	Z16	X17	Y17	Z17	X18	Y18	Z18	X19	Y19	Z19	X20	Y20	Z20	X21	Y21	Z21	X22	Y22	Z22	X23	Y23	Z23	X24	Y24	Z24	X25	Y25	Z25	X26	Y26	Z26	X27	Y27	Z27	X28	Y28	Z28	X29	Y29	Z29	X30	Y30	Z30	X31	Y31	Z31	X32	Y32	Z32	X33	Y33	Z33	X34	Y34	Z34	X35	Y35	Z35	X36	Y36	Z36	X37	Y37	Z37	X38	Y38	Z38	X39	Y39	Z39	X40	Y40	Z40	X41	Y41	Z41	X42	Y42	Z42	X43	Y43	Z43	X44	Y44	Z44	X45	Y45	Z45	X46	Y46	Z46	X47	Y47	Z47	X48	Y48	Z48	X49	Y49	Z49	X50	Y50	Z50	X51	Y51	Z51	X52	Y52	Z52	X53	Y53	Z53	X54	Y54	Z54	X55	Y55	Z55	

65	0.64	-1710.884155273438	1056.887329101562	-533.409912109375	-1700.266235351562	1055.02392578125	-658.5088500976562	-1703.8818359375	1092.746337890625	-594.7702026367188	-1443.831298828125	1295.615844726562	-584.541015625	-1734.987548828125	1247.0966796875	-606.4107055664062	-1666.456787109375	1516.714233398438	-615.7669677734375	-1470.098266601562	1408.874267578125	-597.0282592773438	-1742.961059570312	1342.470825195312	-508.4820251464844	-1665.92578125	1490.828247070312	-718.3076171875	-1581.60546875	1475.468139648438	-790.391845703125	-1602.927978515625	1341.203857421875	-864.5005493164062	-1578.374877929688	1119.652221679688	-873.3733520507812	-1637.419799804688	1106.437866210938	-809.2302856445312	-1470.557861328125	891.2461547851562	-814.1943359375	-1540.20703125	867.0691528320312	-868.6690063476562	-1559.2236328125	1009.03857421875	-880.8167724609375	-1462.565795898438	717.7935180664062	-772.3762817382812	-1519.165161132812	798.2340087890625	-857.7777099609375	-1452.395263671875	812.4328002929688	-828.4654541015625	-1615.649291992188	1494.600463867188	-429.776123046875	-1637.463623046875	1428.620483398438	-360.1097412109375	-1642.732666015625	1136.620483398438	-305.3489379882812	-1651.022338867188	1130.289184570312	-403.4171142578125	-1500.112426757812	912.03173828125	-332.2149658203125	-1573.553833007812	892.8059692382812	-283.3404846191406	-1616.8046875	1064.557983398438	-288.9756164550781	-1482.866088867188	722.5164184570312	-357.2149963378906	-1472.930786132812	818.7470703125	-325.8995666503906	-1545.133422851562	810.7330932617188	-287.0026245117188	-1590.5576171875	1687.707275390625	-535.0419311523438	-1417.940185546875	1707.026489257812	-666.1419677734375	-1416.558715820312	1705.603149414062	-536.8931274414062	-1597.05419921875	1698.356323242188	-672.4970703125	-1588.793823242188	988.8347778320312	-766.6250610351562	-1566.981567382812	1015.353820800781	-397.31591796875	-1477.425048828125	1041.031005859375	-448.1347961425781	-1467.083740234375	1022.610534667969	-704.37255859375	-1600.555419921875	493.2607116699219	-720.3383178710938	-1584.912719726562	634.002685546875	-750.8029174804688	-1695.769897460938	40.87665176391602	-716.9115600585938	-1645.901733398438	274.5549011230469	-732.0557861328125	-1473.418334960938	39.22154235839844	-708.93310546875	-1521.139282226562	39.44621276855469	-657.6919555664062	-1590.34033203125	34.24186706542969	-764.8319702148438	-1740.408203125	39.23980712890625	-643.6688232421875	-1582.638061523438	514.1390991210938	-403.5116271972656	-1678.592651367188	37.59268569946289	-392.2594604492188	-1577.595825195312	397.3453369140625	-417.6898803710938	-1453.383544921875	40.34191513061523	-422.0807495117188	-1508.536987304688	38.64656066894531	-468.1005249023438	-1566.670654296875	36.64368438720703	-355.6365661621094	-1726.661499023438	32.1663703918457	-460.7451171875	-1529.754638671875	781.0940551757812	-380.1099548339844	nan	nan	nan	nan	nan	nan	
66	0.65	-1710.594604492188	1056.929931640625	-533.8672485351562	-1699.961669921875	1055.133056640625	-658.9890747070312	-1703.588256835938	1092.828857421875	-595.2571411132812	-1443.42529296875	1295.536743164062	-584.9796142578125	-1734.610717773438	1247.20361328125	-606.96533203125	-1665.904541015625	1516.780395507812	-616.4282836914062	-1469.4677734375	1408.82666015625	-597.4935302734375	-1742.454956054688	1342.588134765625	-509.0137329101562	-1665.288330078125	1490.866943359375	-718.9407348632812	-1580.961059570312	1475.40185546875	-790.9608154296875	-1602.3046875	1341.122680664062	-865.0252685546875	-1577.850463867188	1119.52880859375	-873.752197265625	-1636.982421875	1106.389526367188	-809.6399536132812	-1470.284057617188	891.0684204101562	-814.3789672851562	-1539.80419921875	866.9307861328125	-868.858642578125	-1558.76025390625	1008.905456542969	-881.1109619140625	-1462.442138671875	717.6994018554688	-772.5217895507812	-1518.805908203125	798.1043090820312	-857.9131469726562	-1452.11279296875	812.33740234375	-828.6469116210938	-1615.132202148438	1494.727294921875	-430.3574829101562	-1636.99365234375	1428.725830078125	-360.6541137695312	-1642.490844726562	1136.789428710938	-305.7696533203125	-1650.78173828125	1130.421020507812	-403.8572387695312	-1499.976806640625	912.0822143554688	-332.5076599121094	-1573.515625	892.9495239257812	-283.6498107910156	-1616.603149414062	1064.705444335938	-289.3487854003906	-1482.856079101562	722.566650390625	-357.4161376953125	-1472.81689453125	818.8179931640625	-326.0545043945312	-1545.11572265625	810.8455810546875	-287.2650756835938	-1590.390380859375	1687.568237304688	-535.7772827148438	-1417.552368164062	1707.325439453125	-666.6000366210938	-1416.431274414062	1705.970947265625	-537.3546752929688	-1596.650268554688	1698.111083984375	-673.2208862304688	-1588.495849609375	988.8521118164062	-767.0580444335938	-1566.770263671875	1015.420043945312	-397.6188049316406	-1477.210571289062	1040.997802734375	-448.4580993652344	-1466.80078125	1022.562805175781	-704.7535400390625	-1600.328979492188	493.2216491699219	-720.5775756835938	-1584.728881835938	633.981201171875	-751.0997314453125	-1695.770385742188	40.87447357177734	-716.9170532226562	-1645.718627929688	274.4751892089844	-732.1412963867188	-1473.426391601562	39.22869873046875	-708.9252319335938	-1521.149169921875	39.44071578979492	-657.6948852539062	-1590.334594726562	34.24499130249023	-764.8275146484375	-1740.411865234375	39.23080444335938	-643.6730346679688	-1582.66552734375	514.14306640625	-403.6391296386719	-1678.59375	37.56218338012695	-392.2336730957031	-1577.58251953125	397.3395080566406	-417.7566528320312	-1453.393310546875	40.34354782104492	-422.0758361816406	-1508.547973632812	38.65540313720703	-468.0920104980469	-1566.67724609375	36.62788009643555	-355.625732421875	-1726.668579101562	32.14990234375	-460.7127990722656	-1529.65087890625	781.0895385742188	-380.355712890625	nan	nan	nan	nan	nan	nan	
67	0.66	-1710.29296875	1056.992797851562	-534.352294921875	-1699.635009765625	1055.254028320312	-659.4868774414062	-1703.278076171875	1092.922241210938	-595.7593994140625	-1442.99072265625	1295.463134765625	-585.42822265625	-1734.213012695312	1247.315795898438	-607.5338745117188	-1665.345581054688	1516.846923828125	-617.1126098632812	-1468.820068359375	1408.787475585938	-597.9736938476562	-1741.938110351562	1342.721435546875	-509.5710144042969	-1664.641357421875	1490.908447265625	-719.5949096679688	-1580.3046875	1475.340209960938	-791.5499267578125	-1601.667724609375	1341.042236328125	-865.5643920898438	-1577.314697265625	1119.406494140625	-874.143798828125	-1636.518310546875	1106.338500976562	-810.0623779296875	-1469.97705078125	890.8861083984375	-814.5809936523438	-1539.373779296875	866.7915649414062	-869.0616455078125	-1558.28076171875	1008.773376464844	-881.41845703125	-1462.298583984375	717.5643310546875	-772.7106323242188	-1518.401489257812	797.9656982421875	-858.0617065429688	-1451.80859375	812.2520751953125	-828.8253784179688	-1614.599853515625	1494.859497070312	-430.9628295898438	-1636.502807617188	1428.838012695312	-361.2113037109375	-1642.230590820312	1136.968139648438	-306.2106628417969	-1650.535034179688	1130.559936523438	-404.3203735351562	-1499.829223632812	912.1400756835938	-332.8246765136719	-1573.475952148438	893.0951538085938	-283.98291015625	-1616.38330078125	1064.85546875	-289.7413330078125	-1482.86083984375	722.6197509765625	-357.6461486816406	-1472.69384765625	818.8892822265625	-326.2363586425781	-1545.0888671875	810.9622802734375	-287.5437622070312	-1590.2236328125	1687.450805664062	-536.5429077148438	-1417.165893554688	1707.632446289062	-667.0857543945312	-1416.324584960938	1706.3515625	-537.844482421875	-1596.248779296875	1697.868774414062	-673.9805908203125	-1588.192993164062	988.8822631835938	-767.513427734375	-1566.523681640625	1015.47021484375	-397.9454345703125	-1476.9775390625	1040.95068359375	-448.8094482421875	-1466.532470703125	1022.502197265625	-705.1705322265625	-1600.0693359375	493.1823425292969	-720.833740234375	-1584.514526367188	633.95654296875	-751.4181518554688	-1695.77099609375	40.87074279785156	-716.9224243164062	-1645.506713867188	274.3990173339844	-732.235595703125	-1473.436279296875	39.23807525634766	-708.91650390625	-1521.157958984375	39.43609619140625	-657.6974487304688	-1590.329711914062	34.24813842773438	-764.8228759765625	-1740.41552734375	39.22108840942383	-643.6787719726562	-1582.712890625	514.1424560546875	-403.7600402832031	-1678.595092773438	37.52211380004883	-392.2000122070312	-1577.585815429688	397.3353881835938	-417.8060302734375	-1453.408081054688	40.34573745727539	-422.0681457519531	-1508.565185546875	38.67010498046875	-468.0799865722656	-1566.690063476562	36.60768508911133	-355.6097412109375	-1726.677978515625	32.13068008422852	-460.6715698242188	-1529.554809570312	781.0785522460938	-380.6147766113281	nan	nan	nan	nan	nan	nan	
68	0.67	-1709.978271484375	1057.080810546875	-534.8656616210938	-1699.284301757812	1055.388793945312	-660.0028076171875	-1702.942626953125	1093.027221679688	-596.2755126953125	-1442.522583007812	1295.398803710938	-585.8904418945312	-1733.790161132812	1247.434326171875	-608.1152954101562	-1664.778442382812	1516.915283203125	-617.8193969726562	-1468.17041015625	1408.754760742188	-598.4747924804688	-1741.41650390625	1342.873779296875	-510.1588745117188	-1663.982666015625	1490.950927734375	-720.2656860351562	-1579.62744140625	1475.28564453125	-792.15625	-1601.0146484375	1340.962646484375	-866.1177368164062	-1576.762573242188	1119.288208007812	-874.5485229492188	-1636.026489257812	1106.287353515625	-810.497314453125	-1469.623901367188	890.706787109375	-814.7977905273438	-1538.922729492188	866.6553955078125	-869.280029296875	-1557.784790039062	1008.643981933594	-881.740478515625	-1462.1201171875	717.4024047851562	-772.9229125976562	-1517.956298828125	797.8208618164062	-858.22509765625	-1451.486206054688	812.1780395507812	-828.998779296875	-1614.054931640625	1494.996459960938	-431.5931701660156	-1635.995361328125	1428.963989257812	-361.7871398925781	-1641.955200195312	1137.15771484375	-306.6757202148438	-1650.276611328125	1130.706665039062	-404.8065490722656	-1499.676513671875	912.2084350585938	-333.1636657714844	-1573.429565429688	893.2433471679688	-284.3392028808594	-1616.147705078125	1065.01318359375	-290.1556091308594	-1482.879760742188	722.6730346679688	-357.9039611816406	-1472.5654296875	818.9605712890625	-326.45166015625	-1545.0546875	811.0866088867188	-287.8406066894531	-1590.05029296875	1687.358276367188	-537.3382568359375	-1416.785766601562	1707.947875976562	-667.6010131835938	-1416.227172851562	1706.745971679688	-538.362548828125	-1595.845703125	1697.630493164062	-674.7750244140625	-1587.8828125	988.9275512695312	-767.994873046875	-1566.240966796875	1015.502563476562	-398.2975158691406	-1476.724609375	1040.887084960938	-449.1961975097656	-1466.274047851562	1022.4306640625	-705.6285400390625	-1599.774291992188	493.1434631347656	-721.1085815429688	-1584.270629882812	633.9314575195312	-751.7615356445312	-1695.772338867188	40.86627197265625	-716.92724609375	-1645.2646484375	274.3229675292969	-732.3423461914062	-1473.4482421875	39.2492561340332	-708.9075317382812	-1521.164916992188	39.43275451660156	-657.6998901367188	-1590.325805664062	34.25163650512695	-764.8173828125	-1740.418334960938	39.21226119995117	-643.6856079101562	-1582.778564453125	514.1360473632812	-403.8752136230469	-1678.597290039062	37.47089767456055	-392.1571044921875	-1577.605712890625	397.3327941894531	-417.837890625	-1453.428100585938	40.34877777099609	-422.0573425292969	-1508.589233398438	38.69222640991211	-468.0631713867188	-1566.70947265625	36.58224487304688	-355.5878601074219	-1726.68896484375	32.10629272460938	-460.6198425292969	-1529.473022460938	781.0604858398438	-380.8980712890625	nan	nan	nan	nan	nan	nan	
